# xmcd
#
# Track frame offsets: 
#        150
#        15071
#        36381
#        67356
#        91391
#        132525
#        158819
#        184607
#        211782
#        238163
#        276563
#
# Disc length: 4038 seconds
#
# Revision: 0
# Processed by: cddbd v1.5.2PL0 Copyright (c) Steve Scherf et al.
# Submitted via: ExactAudioCopy v0.99pb3
#
DISCID=9e0fc40b
DTITLE=Lafayette and the Leasebreakerss - LIVE!
DYEAR=2002
DGENRE=
TTITLE0=You Didn't Think About That
TTITLE1=I'll Take Care of You
TTITLE2=Drivin' Wheel
TTITLE3=The Thrill is Gone
TTITLE4=Rock Me Baby
TTITLE5=That's How Strong My Love Is
TTITLE6=Key to the Highway
TTITLE7=Skin and Bones
TTITLE8=I Wonder Why You're So Mean To Me
TTITLE9=As the Years Go Passing By
TTITLE10=Lucille
EXTD=
EXTT0=
EXTT1=
EXTT2=
EXTT3=
EXTT4=
EXTT5=
EXTT6=
EXTT7=
EXTT8=
EXTT9=
EXTT10=
PLAYORDER=
